<svg width="202" height="52" viewBox="0 0 202 52" fill="none" xmlns="http://www.w3.org/2000/svg">
<path d="M1 9C1 4.58172 4.58172 1 9 1H193C197.418 1 201 4.58172 201 9V43C201 47.4183 197.418 51 193 51H9C4.58173 51 1 47.4183 1 43V9Z" fill="white"/>
<path fill-rule="evenodd" clip-rule="evenodd" d="M1 9C1 4.58172 4.58172 1 9 1H193C197.418 1 201 4.58172 201 9V43C201 47.4183 197.418 51 193 51H9C4.58173 51 1 47.4183 1 43V9Z" stroke="#199AD8" stroke-width="2"/>
<path d="M47.6632 32V20.432H51.8552C53.3699 20.432 54.4925 20.6933 55.2232 21.216C55.9592 21.7387 56.3272 22.488 56.3272 23.464C56.3272 24.04 56.1805 24.5413 55.8872 24.968C55.5939 25.3893 55.0712 25.7573 54.3192 26.072C54.9645 26.2427 55.4499 26.48 55.7752 26.784C56.1005 27.0827 56.3192 27.416 56.4312 27.784C56.5432 28.1467 56.5992 28.5067 56.5992 28.864C56.5992 29.9307 56.2339 30.72 55.5032 31.232C54.7779 31.744 53.6259 32 52.0472 32H47.6632ZM49.9912 25.216H52.2232C52.6979 25.216 53.1245 25.1013 53.5032 24.872C53.8819 24.6427 54.0712 24.2747 54.0712 23.768C54.0712 23.2667 53.8819 22.888 53.5032 22.632C53.1299 22.3707 52.6499 22.24 52.0632 22.24H49.9912V25.216ZM49.9912 30.192H52.0952C52.7939 30.192 53.3245 30.0507 53.6872 29.768C54.0499 29.4853 54.2312 29.1067 54.2312 28.632C54.2312 28.12 54.0392 27.7333 53.6552 27.472C53.2765 27.2053 52.7992 27.072 52.2232 27.072H49.9912V30.192ZM59.3203 32V23.728H61.5683V25.688C61.7656 25.0533 62.0883 24.5413 62.5363 24.152C62.9843 23.7627 63.5363 23.568 64.1923 23.568C64.3683 23.568 64.4883 23.584 64.5523 23.616V25.84C64.5043 25.824 64.4456 25.8133 64.3763 25.808C64.3123 25.7973 64.2536 25.7893 64.2003 25.784C63.2776 25.704 62.6216 25.8267 62.2323 26.152C61.8483 26.4773 61.6563 26.9173 61.6563 27.472V32H59.3203ZM70.3254 32.16C69.5148 32.16 68.8081 31.9867 68.2054 31.64C67.6081 31.2933 67.1441 30.8027 66.8134 30.168C66.4881 29.5333 66.3254 28.7813 66.3254 27.912C66.3254 27.0427 66.4881 26.2827 66.8134 25.632C67.1441 24.9813 67.6081 24.4747 68.2054 24.112C68.8081 23.7493 69.5174 23.568 70.3334 23.568C71.1494 23.568 71.8561 23.7467 72.4534 24.104C73.0508 24.4613 73.5121 24.9653 73.8374 25.616C74.1628 26.2613 74.3254 27.0267 74.3254 27.912C74.3254 28.744 74.1654 29.48 73.8454 30.12C73.5308 30.7547 73.0748 31.2533 72.4774 31.616C71.8854 31.9787 71.1681 32.16 70.3254 32.16ZM70.3334 30.424C70.7441 30.424 71.0748 30.304 71.3254 30.064C71.5761 29.824 71.7574 29.5093 71.8694 29.12C71.9868 28.7253 72.0454 28.296 72.0454 27.832C72.0454 27.3947 71.9921 26.984 71.8854 26.6C71.7788 26.2107 71.6001 25.896 71.3494 25.656C71.1041 25.4107 70.7654 25.288 70.3334 25.288C69.9228 25.288 69.5894 25.4027 69.3334 25.632C69.0828 25.8613 68.8988 26.168 68.7814 26.552C68.6641 26.936 68.6054 27.3627 68.6054 27.832C68.6054 28.264 68.6588 28.68 68.7654 29.08C68.8721 29.4747 69.0508 29.7973 69.3014 30.048C69.5521 30.2987 69.8961 30.424 70.3334 30.424ZM87.9314 23.728L85.2114 32H83.3554L81.8114 26.992L80.2754 32H78.4674L75.7874 23.728H77.8514L79.4354 28.856H79.4994L81.0194 23.728H82.6834L84.2194 28.856H84.2834L85.8194 23.728H87.9314ZM93.2017 32.16C92.6204 32.16 92.0657 32.0667 91.5377 31.88C91.0097 31.688 90.559 31.3893 90.1857 30.984C89.8124 30.5787 89.5777 30.048 89.4817 29.392H91.5057C91.607 29.8347 91.831 30.1413 92.1777 30.312C92.5297 30.4773 92.8657 30.56 93.1857 30.56C93.6337 30.56 93.9937 30.4907 94.2657 30.352C94.543 30.208 94.6817 29.9893 94.6817 29.696C94.6817 29.472 94.599 29.2933 94.4337 29.16C94.2737 29.0267 94.007 28.9253 93.6337 28.856L92.1777 28.552C91.447 28.3973 90.8577 28.136 90.4097 27.768C89.967 27.3947 89.743 26.8667 89.7377 26.184C89.7324 25.4373 90.0257 24.816 90.6177 24.32C91.215 23.8187 92.079 23.568 93.2097 23.568C94.2284 23.568 95.0417 23.7947 95.6497 24.248C96.263 24.696 96.575 25.3253 96.5857 26.136H94.6337C94.575 25.816 94.415 25.5707 94.1537 25.4C93.8977 25.224 93.575 25.136 93.1857 25.136C92.7804 25.136 92.447 25.208 92.1857 25.352C91.9244 25.496 91.7937 25.7147 91.7937 26.008C91.7937 26.2267 91.9004 26.4 92.1137 26.528C92.327 26.6507 92.6577 26.7573 93.1057 26.848L94.4497 27.152C95.063 27.3013 95.5297 27.52 95.8497 27.808C96.175 28.096 96.3937 28.4 96.5057 28.72C96.623 29.0347 96.6817 29.3173 96.6817 29.568C96.6817 30.3947 96.359 31.0347 95.7137 31.488C95.0684 31.936 94.231 32.16 93.2017 32.16ZM101.24 28.4C101.235 29.0347 101.387 29.5387 101.696 29.912C102.006 30.2853 102.44 30.472 103 30.472C103.4 30.472 103.75 30.3867 104.048 30.216C104.352 30.0453 104.563 29.7653 104.68 29.376H106.784C106.694 29.9627 106.459 30.464 106.08 30.88C105.707 31.296 105.254 31.6133 104.72 31.832C104.187 32.0507 103.632 32.16 103.056 32.16C102.235 32.16 101.515 31.9893 100.896 31.648C100.278 31.3013 99.795 30.8133 99.4483 30.184C99.1016 29.5547 98.9283 28.8133 98.9283 27.96C98.9283 27.1333 99.0856 26.3893 99.4003 25.728C99.715 25.0613 100.171 24.536 100.768 24.152C101.371 23.7627 102.094 23.568 102.936 23.568C103.779 23.568 104.486 23.7467 105.056 24.104C105.632 24.456 106.064 24.9493 106.352 25.584C106.646 26.2133 106.792 26.9413 106.792 27.768V28.4H101.24ZM101.232 27.008H104.608C104.608 26.5067 104.47 26.08 104.192 25.728C103.915 25.376 103.496 25.2 102.936 25.2C102.574 25.2 102.264 25.288 102.008 25.464C101.758 25.64 101.566 25.8667 101.432 26.144C101.299 26.416 101.232 26.704 101.232 27.008ZM114.054 20.432H121.926L121.918 22.384H116.406V25.288H121.182V27.2H116.406V32H114.054V20.432ZM126.946 20.44V22.544H124.674V20.44H126.946ZM126.922 23.728V32H124.69V23.728H126.922ZM132.726 32.144C132.113 32.144 131.627 32.072 131.27 31.928C130.918 31.784 130.657 31.5947 130.486 31.36C130.315 31.12 130.206 30.856 130.158 30.568C130.11 30.2747 130.086 29.9787 130.086 29.68V20.112H132.374V29.392C132.374 29.696 132.441 29.944 132.574 30.136C132.707 30.328 132.953 30.4427 133.31 30.48L133.702 30.504V31.944C133.542 32.0027 133.377 32.0507 133.206 32.088C133.041 32.1253 132.881 32.144 132.726 32.144ZM138.1 28.4C138.094 29.0347 138.246 29.5387 138.556 29.912C138.865 30.2853 139.3 30.472 139.86 30.472C140.26 30.472 140.609 30.3867 140.908 30.216C141.212 30.0453 141.422 29.7653 141.54 29.376H143.644C143.553 29.9627 143.318 30.464 142.94 30.88C142.566 31.296 142.113 31.6133 141.58 31.832C141.046 32.0507 140.492 32.16 139.916 32.16C139.094 32.16 138.374 31.9893 137.756 31.648C137.137 31.3013 136.654 30.8133 136.308 30.184C135.961 29.5547 135.788 28.8133 135.788 27.96C135.788 27.1333 135.945 26.3893 136.26 25.728C136.574 25.0613 137.03 24.536 137.628 24.152C138.23 23.7627 138.953 23.568 139.796 23.568C140.638 23.568 141.345 23.7467 141.916 24.104C142.492 24.456 142.924 24.9493 143.212 25.584C143.505 26.2133 143.652 26.9413 143.652 27.768V28.4H138.1ZM138.092 27.008H141.468C141.468 26.5067 141.329 26.08 141.052 25.728C140.774 25.376 140.356 25.2 139.796 25.2C139.433 25.2 139.124 25.288 138.868 25.464C138.617 25.64 138.425 25.8667 138.292 26.144C138.158 26.416 138.092 26.704 138.092 27.008ZM149.514 32.16C148.933 32.16 148.378 32.0667 147.85 31.88C147.322 31.688 146.872 31.3893 146.498 30.984C146.125 30.5787 145.89 30.048 145.794 29.392H147.818C147.92 29.8347 148.144 30.1413 148.49 30.312C148.842 30.4773 149.178 30.56 149.498 30.56C149.946 30.56 150.306 30.4907 150.578 30.352C150.856 30.208 150.994 29.9893 150.994 29.696C150.994 29.472 150.912 29.2933 150.746 29.16C150.586 29.0267 150.32 28.9253 149.946 28.856L148.49 28.552C147.76 28.3973 147.17 28.136 146.722 27.768C146.28 27.3947 146.056 26.8667 146.05 26.184C146.045 25.4373 146.338 24.816 146.93 24.32C147.528 23.8187 148.392 23.568 149.522 23.568C150.541 23.568 151.354 23.7947 151.962 24.248C152.576 24.696 152.888 25.3253 152.898 26.136H150.946C150.888 25.816 150.728 25.5707 150.466 25.4C150.21 25.224 149.888 25.136 149.498 25.136C149.093 25.136 148.76 25.208 148.498 25.352C148.237 25.496 148.106 25.7147 148.106 26.008C148.106 26.2267 148.213 26.4 148.426 26.528C148.64 26.6507 148.97 26.7573 149.418 26.848L150.762 27.152C151.376 27.3013 151.842 27.52 152.162 27.808C152.488 28.096 152.706 28.4 152.818 28.72C152.936 29.0347 152.994 29.3173 152.994 29.568C152.994 30.3947 152.672 31.0347 152.026 31.488C151.381 31.936 150.544 32.16 149.514 32.16Z" fill="#199AD8"/>
</svg>
