<svg width="86" height="63" viewBox="0 0 86 63" fill="none" xmlns="http://www.w3.org/2000/svg">
<path d="M67.1556 62.466H53.2801H49.5438H48.7368V43.8542H54.8238C56.3675 43.8542 57.2796 42.1001 56.3675 40.8371L44.5268 24.4531C43.7725 23.4006 42.2113 23.4006 41.457 24.4531L29.6164 40.8371C28.7042 42.1001 29.5988 43.8542 31.1601 43.8542H37.247V62.466H36.4401H32.7037H16.618C7.4086 61.9573 0.0761719 53.3443 0.0761719 44.0121C0.0761719 37.5743 3.56697 31.961 8.74177 28.9263C8.26814 27.6457 8.02256 26.2775 8.02256 24.839C8.02256 18.2609 13.3377 12.9458 19.9158 12.9458C21.3367 12.9458 22.705 13.1914 23.9855 13.665C27.7921 5.5958 36.0016 0 45.5443 0C57.8936 0.0175417 68.0678 9.47252 69.2255 21.5237C78.7156 23.155 85.9252 31.9434 85.9252 41.8896C85.9252 52.5198 77.6456 61.7292 67.1556 62.466Z" fill="#199AD8"/>
</svg>
