<svg width="22" height="22" viewBox="0 0 22 22" fill="none" xmlns="http://www.w3.org/2000/svg">
<circle cx="11" cy="11" r="11" fill="#316D8A" fill-opacity="0.14"/>
<path d="M12.32 10.9997L14.7949 13.4747C15.0684 13.7481 15.0684 14.1914 14.7949 14.4645L14.465 14.7944C14.1914 15.0679 13.7481 15.0679 13.4751 14.7944L11.0003 12.3196L8.52535 14.7949C8.2519 15.0684 7.80856 15.0684 7.53554 14.7949L7.20509 14.465C6.93164 14.1914 6.93164 13.7481 7.20509 13.4751L9.68042 10.9997L7.2056 8.52492C6.93206 8.25138 6.93206 7.80805 7.2056 7.53503L7.53554 7.20509C7.80899 6.93164 8.25232 6.93164 8.52535 7.20509L11.0003 9.68L13.4751 7.20509C13.7486 6.93164 14.192 6.93164 14.465 7.20509L14.7949 7.53503C15.0684 7.80856 15.0684 8.2519 14.7949 8.52492L12.32 10.9997Z" fill="#316D8A"/>
</svg>
